<svg width="27" height="32" viewBox="0 0 27 32" fill="none" xmlns="http://www.w3.org/2000/svg">
<path d="M22.891 3.89593C17.6964 -1.29864 9.30517 -1.29864 4.17719 3.89593C-1.0174 9.0905 -1.0174 17.4151 4.17719 22.6097L13.5008 31.9999L22.8244 22.6763C28.019 17.4817 28.019 9.0905 22.891 3.89593Z" fill="#B34B1E"/>
<path d="M19.8907 19.6094C16.3611 23.1391 10.7003 23.1391 7.17067 19.6094C3.64103 16.0798 3.64103 10.419 7.17067 6.88941C10.7003 3.35978 16.3611 3.35978 19.8907 6.88941C23.3538 10.419 23.3538 16.1464 19.8907 19.6094Z" fill="white"/>
<path d="M6.17188 13.4207L12.1656 14.6195L13.3644 20.6132L18.4258 8.35938L6.17188 13.4207Z" fill="#F7B900"/>
</svg>
