<svg width="35" height="22" viewBox="0 0 35 22" fill="none" xmlns="http://www.w3.org/2000/svg">
<g clip-path="url(#clip0_6934_6948)">
<path opacity="0.07" d="M32.2368 0.0195312H2.76316C1.19737 0.0195312 0 1.20907 0 2.76463V19.2352C0 20.7908 1.28947 21.9803 2.76316 21.9803H32.2368C33.8026 21.9803 35 20.7908 35 19.2352V2.76463C35 1.20907 33.7105 0.0195312 32.2368 0.0195312Z" fill="black"/>
<path d="M32.2377 0.933594C33.2508 0.933594 34.0798 1.75712 34.0798 2.76366V19.2342C34.0798 20.2408 33.2508 21.0643 32.2377 21.0643H2.76398C1.75082 21.0643 0.921875 20.2408 0.921875 19.2342V2.76366C0.921875 1.75712 1.75082 0.933594 2.76398 0.933594H32.2377Z" fill="white"/>
<path d="M13.8165 17.4042C17.3773 17.4042 20.2639 14.5365 20.2639 10.999C20.2639 7.46147 17.3773 4.59375 13.8165 4.59375C10.2557 4.59375 7.36914 7.46147 7.36914 10.999C7.36914 14.5365 10.2557 17.4042 13.8165 17.4042Z" fill="#EB001B"/>
<path d="M21.1837 17.4042C24.7445 17.4042 27.6311 14.5365 27.6311 10.999C27.6311 7.46147 24.7445 4.59375 21.1837 4.59375C17.6229 4.59375 14.7363 7.46147 14.7363 10.999C14.7363 14.5365 17.6229 17.4042 21.1837 17.4042Z" fill="#F79E1B"/>
<path d="M20.2626 11.0008C20.2626 8.80476 19.1574 6.8832 17.4995 5.78516C15.8416 6.9747 14.7363 8.89627 14.7363 11.0008C14.7363 13.1054 15.8416 15.1185 17.4995 16.2165C19.1574 15.1185 20.2626 13.1969 20.2626 11.0008Z" fill="#FF5F00"/>
</g>
<defs>
<clipPath id="clip0_6934_6948">
<rect width="35" height="21.9608" fill="white" transform="translate(0 0.0195312)"/>
</clipPath>
</defs>
</svg>
