<svg width="349" height="24" viewBox="0 0 349 24" fill="none" xmlns="http://www.w3.org/2000/svg">
<path d="M0.333333 12C0.333333 13.4728 1.52724 14.6667 3 14.6667C4.47276 14.6667 5.66667 13.4728 5.66667 12C5.66667 10.5272 4.47276 9.33333 3 9.33333C1.52724 9.33333 0.333333 10.5272 0.333333 12ZM3 12.5H6.84668V11.5H3V12.5ZM14.54 12.5H22.2334V11.5H14.54V12.5ZM29.9268 12.5H37.6201V11.5H29.9268V12.5ZM45.3135 12.5H49.1602V11.5H45.3135V12.5Z" fill="#FEBA9D"/>
<ellipse cx="69.5202" cy="14.1042" rx="1.42447" ry="1.42448" fill="url(#paint0_linear_7302_5788)"/>
<ellipse cx="3.90031" cy="2.51953" rx="3.90031" ry="2.51953" transform="matrix(0.941958 0.335729 -0.335724 0.941961 60.7461 7.78906)" fill="url(#paint1_linear_7302_5788)"/>
<g clip-path="url(#clip0_7302_5788)">
<path d="M90.7246 12C88.4042 12 86.5059 13.8984 86.5059 16.2188C86.5059 18.5391 88.4042 20.4375 90.7246 20.4375C93.0449 20.4375 94.9433 18.5391 94.9433 16.2188C94.9433 13.8984 93.0449 12 90.7246 12ZM90.7246 19.0312C89.1778 19.0312 87.9121 17.7656 87.9121 16.2188C87.9121 14.6719 89.1778 13.4062 90.7246 13.4062C92.2714 13.4062 93.537 14.6719 93.537 16.2188C93.537 17.7656 92.2714 19.0312 90.7246 19.0312Z" fill="#B34B1E"/>
<path d="M75.1621 12C72.8417 12 70.9434 13.8984 70.9434 16.2188C70.9434 18.5391 72.8417 20.4375 75.1621 20.4375C77.4824 20.4375 79.3808 18.5391 79.3808 16.2188C79.3808 13.8984 77.4824 12 75.1621 12ZM75.1621 19.0312C73.6153 19.0312 72.3496 17.7656 72.3496 16.2188C72.3496 14.6719 73.6153 13.4062 75.1621 13.4062C76.7089 13.4062 77.9745 14.6719 77.9745 16.2188C77.9745 17.7656 76.7089 19.0312 75.1621 19.0312Z" fill="#B34B1E"/>
<path d="M76.5684 7.78125H83.6933V12H76.5684V7.78125ZM87.2089 4.96875H85.8026C85.414 4.96875 85.0995 4.65427 85.0995 4.26562C85.0995 3.87698 85.414 3.5625 85.8026 3.5625H87.2089C87.5975 3.5625 87.912 3.87698 87.912 4.26562C87.912 4.65427 87.5975 4.96875 87.2089 4.96875Z" fill="#F6B900"/>
<path d="M91.1182 16.8047C90.9916 16.875 90.865 16.9173 90.7244 16.9173C90.4995 16.9173 90.2745 16.8047 90.1339 16.6079L86.8432 11.6861C86.6183 11.3626 86.7167 10.9266 87.026 10.7017C87.3494 10.4907 87.7854 10.5751 88.0104 10.8985L90.7244 14.9345L91.315 15.8204C91.526 16.1438 91.4416 16.5798 91.1182 16.8047ZM82.9901 14.8079V17.6204H75.1621C74.3887 17.6204 73.7559 16.9876 73.7559 16.2141C73.7559 15.4407 74.3887 14.8079 75.1621 14.8079H82.9901Z" fill="#F6B900"/>
<path d="M87.2088 3.5625C86.815 3.5625 86.5057 3.87183 86.5057 4.26562V6.375H84.3964C84.1573 6.375 83.9464 6.48755 83.8058 6.68433L81.1573 10.5938H79.0573L76.8214 7.24688C76.4558 6.69844 75.8511 6.375 75.1902 6.375H71.6465C71.2527 6.375 70.9434 6.68433 70.9434 7.07812C70.9434 8.87817 72.3074 10.3828 74.0652 10.5656L76.3152 13.9406C76.6808 14.4891 77.2855 14.8125 77.9464 14.8125H79.648L80.1308 15.6984L80.5526 16.5421C80.8901 17.2031 81.5652 17.625 82.3245 17.625H83.3557C84.2979 17.625 85.0995 16.9641 85.2823 16.0359L85.3948 15.5438C85.9573 12.675 88.5025 10.5938 91.4275 10.5938C91.8213 10.5938 92.1307 10.2844 92.1307 9.89062V8.48438C92.1307 5.77031 89.9229 3.5625 87.2088 3.5625Z" fill="#B34B1E"/>
</g>
<path d="M109.869 8.81V11.26H113.159V12.814H109.869V15.404H113.579V17H107.909V7.214H113.579V8.81H109.869ZM119.659 9.132C120.583 9.132 121.329 9.426 121.899 10.014C122.468 10.5927 122.753 11.4047 122.753 12.45V17H120.793V12.716C120.793 12.1 120.639 11.6287 120.331 11.302C120.023 10.966 119.603 10.798 119.071 10.798C118.529 10.798 118.1 10.966 117.783 11.302C117.475 11.6287 117.321 12.1 117.321 12.716V17H115.361V9.244H117.321V10.21C117.582 9.874 117.913 9.61267 118.315 9.426C118.725 9.23 119.173 9.132 119.659 9.132ZM125.61 8.32C125.256 8.32 124.962 8.21267 124.728 7.998C124.504 7.774 124.392 7.49867 124.392 7.172C124.392 6.84533 124.504 6.57467 124.728 6.36C124.962 6.136 125.256 6.024 125.61 6.024C125.956 6.024 126.24 6.136 126.464 6.36C126.688 6.57467 126.8 6.84533 126.8 7.172C126.8 7.49867 126.688 7.774 126.464 7.998C126.24 8.21267 125.956 8.32 125.61 8.32ZM126.576 18.274C126.576 19.1327 126.362 19.7487 125.932 20.122C125.512 20.5047 124.906 20.696 124.112 20.696H123.244V19.03H123.804C124.103 19.03 124.313 18.9693 124.434 18.848C124.556 18.736 124.616 18.5493 124.616 18.288V9.244H126.576V18.274ZM131.957 17.126C131.21 17.126 130.538 16.9627 129.941 16.636C129.344 16.3 128.872 15.8287 128.527 15.222C128.191 14.6153 128.023 13.9153 128.023 13.122C128.023 12.3287 128.196 11.6287 128.541 11.022C128.896 10.4153 129.376 9.94867 129.983 9.622C130.59 9.286 131.266 9.118 132.013 9.118C132.76 9.118 133.436 9.286 134.043 9.622C134.65 9.94867 135.126 10.4153 135.471 11.022C135.826 11.6287 136.003 12.3287 136.003 13.122C136.003 13.9153 135.821 14.6153 135.457 15.222C135.102 15.8287 134.617 16.3 134.001 16.636C133.394 16.9627 132.713 17.126 131.957 17.126ZM131.957 15.418C132.312 15.418 132.643 15.334 132.951 15.166C133.268 14.9887 133.52 14.7273 133.707 14.382C133.894 14.0367 133.987 13.6167 133.987 13.122C133.987 12.3847 133.791 11.82 133.399 11.428C133.016 11.0267 132.545 10.826 131.985 10.826C131.425 10.826 130.954 11.0267 130.571 11.428C130.198 11.82 130.011 12.3847 130.011 13.122C130.011 13.8593 130.193 14.4287 130.557 14.83C130.93 15.222 131.397 15.418 131.957 15.418ZM138.435 8.32C138.089 8.32 137.8 8.21267 137.567 7.998C137.343 7.774 137.231 7.49867 137.231 7.172C137.231 6.84533 137.343 6.57467 137.567 6.36C137.8 6.136 138.089 6.024 138.435 6.024C138.78 6.024 139.065 6.136 139.289 6.36C139.522 6.57467 139.639 6.84533 139.639 7.172C139.639 7.49867 139.522 7.774 139.289 7.998C139.065 8.21267 138.78 8.32 138.435 8.32ZM139.401 9.244V17H137.441V9.244H139.401ZM145.635 9.132C146.559 9.132 147.306 9.426 147.875 10.014C148.444 10.5927 148.729 11.4047 148.729 12.45V17H146.769V12.716C146.769 12.1 146.615 11.6287 146.307 11.302C145.999 10.966 145.579 10.798 145.047 10.798C144.506 10.798 144.076 10.966 143.759 11.302C143.451 11.6287 143.297 12.1 143.297 12.716V17H141.337V9.244H143.297V10.21C143.558 9.874 143.89 9.61267 144.291 9.426C144.702 9.23 145.15 9.132 145.635 9.132ZM153.733 9.482C153.78 8.54867 154.106 7.83 154.713 7.326C155.329 6.81267 156.136 6.556 157.135 6.556C157.816 6.556 158.4 6.67733 158.885 6.92C159.37 7.15333 159.734 7.47533 159.977 7.886C160.229 8.28733 160.355 8.74467 160.355 9.258C160.355 9.846 160.201 10.3453 159.893 10.756C159.594 11.1573 159.235 11.428 158.815 11.568V11.624C159.356 11.792 159.776 12.0907 160.075 12.52C160.383 12.9493 160.537 13.5 160.537 14.172C160.537 14.732 160.406 15.2313 160.145 15.67C159.893 16.1087 159.515 16.454 159.011 16.706C158.516 16.9487 157.919 17.07 157.219 17.07C156.164 17.07 155.306 16.804 154.643 16.272C153.98 15.74 153.63 14.956 153.593 13.92H155.497C155.516 14.3773 155.67 14.746 155.959 15.026C156.258 15.2967 156.664 15.432 157.177 15.432C157.653 15.432 158.017 15.3013 158.269 15.04C158.53 14.7693 158.661 14.424 158.661 14.004C158.661 13.444 158.484 13.0427 158.129 12.8C157.774 12.5573 157.224 12.436 156.477 12.436H156.071V10.826H156.477C157.802 10.826 158.465 10.3827 158.465 9.496C158.465 9.09467 158.344 8.782 158.101 8.558C157.868 8.334 157.527 8.222 157.079 8.222C156.64 8.222 156.3 8.34333 156.057 8.586C155.824 8.81933 155.688 9.118 155.651 9.482H153.733ZM169.062 7.228C170.088 7.228 170.989 7.42867 171.764 7.83C172.548 8.23133 173.15 8.80533 173.57 9.552C173.999 10.2893 174.214 11.148 174.214 12.128C174.214 13.108 173.999 13.9667 173.57 14.704C173.15 15.432 172.548 15.9967 171.764 16.398C170.989 16.7993 170.088 17 169.062 17H165.646V7.228H169.062ZM168.992 15.334C170.018 15.334 170.812 15.054 171.372 14.494C171.932 13.934 172.212 13.1453 172.212 12.128C172.212 11.1107 171.932 10.3173 171.372 9.748C170.812 9.16933 170.018 8.88 168.992 8.88H167.606V15.334H168.992ZM175.177 13.094C175.177 12.31 175.331 11.6147 175.639 11.008C175.956 10.4013 176.381 9.93467 176.913 9.608C177.454 9.28133 178.056 9.118 178.719 9.118C179.298 9.118 179.802 9.23467 180.231 9.468C180.67 9.70133 181.02 9.99533 181.281 10.35V9.244H183.255V17H181.281V15.866C181.029 16.23 180.679 16.5333 180.231 16.776C179.792 17.0093 179.284 17.126 178.705 17.126C178.052 17.126 177.454 16.958 176.913 16.622C176.381 16.286 175.956 15.8147 175.639 15.208C175.331 14.592 175.177 13.8873 175.177 13.094ZM181.281 13.122C181.281 12.646 181.188 12.24 181.001 11.904C180.814 11.5587 180.562 11.2973 180.245 11.12C179.928 10.9333 179.587 10.84 179.223 10.84C178.859 10.84 178.523 10.9287 178.215 11.106C177.907 11.2833 177.655 11.5447 177.459 11.89C177.272 12.226 177.179 12.6273 177.179 13.094C177.179 13.5607 177.272 13.9713 177.459 14.326C177.655 14.6713 177.907 14.9373 178.215 15.124C178.532 15.3107 178.868 15.404 179.223 15.404C179.587 15.404 179.928 15.3153 180.245 15.138C180.562 14.9513 180.814 14.69 181.001 14.354C181.188 14.0087 181.281 13.598 181.281 13.122ZM192.589 9.244L187.787 20.668H185.701L187.381 16.804L184.273 9.244H186.471L188.473 14.662L190.503 9.244H192.589ZM196.614 17.126C195.979 17.126 195.41 17.014 194.906 16.79C194.402 16.5567 194 16.244 193.702 15.852C193.412 15.46 193.254 15.026 193.226 14.55H195.2C195.237 14.8487 195.382 15.096 195.634 15.292C195.895 15.488 196.217 15.586 196.6 15.586C196.973 15.586 197.262 15.5113 197.468 15.362C197.682 15.2127 197.79 15.0213 197.79 14.788C197.79 14.536 197.659 14.3493 197.398 14.228C197.146 14.0973 196.74 13.9573 196.18 13.808C195.601 13.668 195.125 13.5233 194.752 13.374C194.388 13.2247 194.07 12.996 193.8 12.688C193.538 12.38 193.408 11.9647 193.408 11.442C193.408 11.0127 193.529 10.6207 193.772 10.266C194.024 9.91133 194.378 9.63133 194.836 9.426C195.302 9.22067 195.848 9.118 196.474 9.118C197.398 9.118 198.135 9.35133 198.686 9.818C199.236 10.2753 199.54 10.896 199.596 11.68H197.72C197.692 11.372 197.561 11.1293 197.328 10.952C197.104 10.7653 196.8 10.672 196.418 10.672C196.063 10.672 195.788 10.7373 195.592 10.868C195.405 10.9987 195.312 11.1807 195.312 11.414C195.312 11.6753 195.442 11.876 195.704 12.016C195.965 12.1467 196.371 12.282 196.922 12.422C197.482 12.562 197.944 12.7067 198.308 12.856C198.672 13.0053 198.984 13.2387 199.246 13.556C199.516 13.864 199.656 14.2747 199.666 14.788C199.666 15.236 199.54 15.6373 199.288 15.992C199.045 16.3467 198.69 16.6267 198.224 16.832C197.766 17.028 197.23 17.126 196.614 17.126ZM206.571 7.228V17H204.611V7.228H206.571ZM212.805 9.132C213.729 9.132 214.476 9.426 215.045 10.014C215.614 10.5927 215.899 11.4047 215.899 12.45V17H213.939V12.716C213.939 12.1 213.785 11.6287 213.477 11.302C213.169 10.966 212.749 10.798 212.217 10.798C211.676 10.798 211.246 10.966 210.929 11.302C210.621 11.6287 210.467 12.1 210.467 12.716V17H208.507V9.244H210.467V10.21C210.728 9.874 211.06 9.61267 211.461 9.426C211.872 9.23 212.32 9.132 212.805 9.132ZM229.205 7.228V17H227.245V12.842H223.059V17H221.099V7.228H223.059V11.246H227.245V7.228H229.205ZM230.63 13.094C230.63 12.31 230.784 11.6147 231.092 11.008C231.409 10.4013 231.834 9.93467 232.366 9.608C232.907 9.28133 233.509 9.118 234.172 9.118C234.751 9.118 235.255 9.23467 235.684 9.468C236.123 9.70133 236.473 9.99533 236.734 10.35V9.244H238.708V17H236.734V15.866C236.482 16.23 236.132 16.5333 235.684 16.776C235.245 17.0093 234.737 17.126 234.158 17.126C233.505 17.126 232.907 16.958 232.366 16.622C231.834 16.286 231.409 15.8147 231.092 15.208C230.784 14.592 230.63 13.8873 230.63 13.094ZM236.734 13.122C236.734 12.646 236.641 12.24 236.454 11.904C236.267 11.5587 236.015 11.2973 235.698 11.12C235.381 10.9333 235.04 10.84 234.676 10.84C234.312 10.84 233.976 10.9287 233.668 11.106C233.36 11.2833 233.108 11.5447 232.912 11.89C232.725 12.226 232.632 12.6273 232.632 13.094C232.632 13.5607 232.725 13.9713 232.912 14.326C233.108 14.6713 233.36 14.9373 233.668 15.124C233.985 15.3107 234.321 15.404 234.676 15.404C235.04 15.404 235.381 15.3153 235.698 15.138C236.015 14.9513 236.267 14.69 236.454 14.354C236.641 14.0087 236.734 13.598 236.734 13.122ZM250.762 10.168C250.538 9.75733 250.23 9.44467 249.838 9.23C249.446 9.01533 248.989 8.908 248.466 8.908C247.888 8.908 247.374 9.03867 246.926 9.3C246.478 9.56133 246.128 9.93467 245.876 10.42C245.624 10.9053 245.498 11.4653 245.498 12.1C245.498 12.7533 245.624 13.3227 245.876 13.808C246.138 14.2933 246.497 14.6667 246.954 14.928C247.412 15.1893 247.944 15.32 248.55 15.32C249.297 15.32 249.908 15.124 250.384 14.732C250.86 14.3307 251.173 13.7753 251.322 13.066H247.962V11.568H253.254V13.276C253.124 13.9573 252.844 14.5873 252.414 15.166C251.985 15.7447 251.43 16.2113 250.748 16.566C250.076 16.9113 249.32 17.084 248.48 17.084C247.538 17.084 246.684 16.874 245.918 16.454C245.162 16.0247 244.565 15.432 244.126 14.676C243.697 13.92 243.482 13.0613 243.482 12.1C243.482 11.1387 243.697 10.28 244.126 9.524C244.565 8.75867 245.162 8.166 245.918 7.746C246.684 7.31667 247.533 7.102 248.466 7.102C249.568 7.102 250.524 7.37267 251.336 7.914C252.148 8.446 252.708 9.19733 253.016 10.168H250.762ZM255.698 8.32C255.353 8.32 255.064 8.21267 254.83 7.998C254.606 7.774 254.494 7.49867 254.494 7.172C254.494 6.84533 254.606 6.57467 254.83 6.36C255.064 6.136 255.353 6.024 255.698 6.024C256.044 6.024 256.328 6.136 256.552 6.36C256.786 6.57467 256.902 6.84533 256.902 7.172C256.902 7.49867 256.786 7.774 256.552 7.998C256.328 8.21267 256.044 8.32 255.698 8.32ZM256.664 9.244V17H254.704V9.244H256.664ZM258.097 13.094C258.097 12.31 258.251 11.6147 258.559 11.008C258.876 10.4013 259.301 9.93467 259.833 9.608C260.374 9.28133 260.976 9.118 261.639 9.118C262.217 9.118 262.721 9.23467 263.151 9.468C263.589 9.70133 263.939 9.99533 264.201 10.35V9.244H266.175V17H264.201V15.866C263.949 16.23 263.599 16.5333 263.151 16.776C262.712 17.0093 262.203 17.126 261.625 17.126C260.971 17.126 260.374 16.958 259.833 16.622C259.301 16.286 258.876 15.8147 258.559 15.208C258.251 14.592 258.097 13.8873 258.097 13.094ZM264.201 13.122C264.201 12.646 264.107 12.24 263.921 11.904C263.734 11.5587 263.482 11.2973 263.165 11.12C262.847 10.9333 262.507 10.84 262.143 10.84C261.779 10.84 261.443 10.9287 261.135 11.106C260.827 11.2833 260.575 11.5447 260.379 11.89C260.192 12.226 260.099 12.6273 260.099 13.094C260.099 13.5607 260.192 13.9713 260.379 14.326C260.575 14.6713 260.827 14.9373 261.135 15.124C261.452 15.3107 261.788 15.404 262.143 15.404C262.507 15.404 262.847 15.3153 263.165 15.138C263.482 14.9513 263.734 14.69 263.921 14.354C264.107 14.0087 264.201 13.598 264.201 13.122ZM272.387 9.132C273.311 9.132 274.058 9.426 274.627 10.014C275.196 10.5927 275.481 11.4047 275.481 12.45V17H273.521V12.716C273.521 12.1 273.367 11.6287 273.059 11.302C272.751 10.966 272.331 10.798 271.799 10.798C271.258 10.798 270.828 10.966 270.511 11.302C270.203 11.6287 270.049 12.1 270.049 12.716V17H268.089V9.244H270.049V10.21C270.31 9.874 270.642 9.61267 271.043 9.426C271.454 9.23 271.902 9.132 272.387 9.132ZM280.383 9.118C280.962 9.118 281.47 9.23467 281.909 9.468C282.348 9.692 282.693 9.986 282.945 10.35V9.244H284.919V17.056C284.919 17.7747 284.774 18.414 284.485 18.974C284.196 19.5433 283.762 19.9913 283.183 20.318C282.604 20.654 281.904 20.822 281.083 20.822C279.982 20.822 279.076 20.5653 278.367 20.052C277.667 19.5387 277.27 18.8387 277.177 17.952H279.123C279.226 18.3067 279.445 18.5867 279.781 18.792C280.126 19.0067 280.542 19.114 281.027 19.114C281.596 19.114 282.058 18.9413 282.413 18.596C282.768 18.26 282.945 17.7467 282.945 17.056V15.852C282.693 16.216 282.343 16.5193 281.895 16.762C281.456 17.0047 280.952 17.126 280.383 17.126C279.73 17.126 279.132 16.958 278.591 16.622C278.05 16.286 277.62 15.8147 277.303 15.208C276.995 14.592 276.841 13.8873 276.841 13.094C276.841 12.31 276.995 11.6147 277.303 11.008C277.62 10.4013 278.045 9.93467 278.577 9.608C279.118 9.28133 279.72 9.118 280.383 9.118ZM282.945 13.122C282.945 12.646 282.852 12.24 282.665 11.904C282.478 11.5587 282.226 11.2973 281.909 11.12C281.592 10.9333 281.251 10.84 280.887 10.84C280.523 10.84 280.187 10.9287 279.879 11.106C279.571 11.2833 279.319 11.5447 279.123 11.89C278.936 12.226 278.843 12.6273 278.843 13.094C278.843 13.5607 278.936 13.9713 279.123 14.326C279.319 14.6713 279.571 14.9373 279.879 15.124C280.196 15.3107 280.532 15.404 280.887 15.404C281.251 15.404 281.592 15.3153 281.909 15.138C282.226 14.9513 282.478 14.69 282.665 14.354C282.852 14.0087 282.945 13.598 282.945 13.122ZM287.701 17.098C287.347 17.098 287.053 16.9907 286.819 16.776C286.595 16.552 286.483 16.2767 286.483 15.95C286.483 15.6233 286.595 15.3527 286.819 15.138C287.053 14.914 287.347 14.802 287.701 14.802C288.047 14.802 288.331 14.914 288.555 15.138C288.779 15.3527 288.891 15.6233 288.891 15.95C288.891 16.2767 288.779 16.552 288.555 16.776C288.331 16.9907 288.047 17.098 287.701 17.098Z" fill="#B34B1E"/>
<path d="M343.333 12C343.333 13.4728 344.527 14.6667 346 14.6667C347.473 14.6667 348.667 13.4728 348.667 12C348.667 10.5272 347.473 9.33333 346 9.33333C344.527 9.33333 343.333 10.5272 343.333 12ZM299.84 12.5H303.687V11.5H299.84V12.5ZM311.38 12.5H319.073V11.5H311.38V12.5ZM326.767 12.5H334.46V11.5H326.767V12.5ZM342.153 12.5H346V11.5H342.153V12.5Z" fill="#FEBA9D"/>
<defs>
<linearGradient id="paint0_linear_7302_5788" x1="70.9446" y1="14.9026" x2="68.5938" y2="12.9009" gradientUnits="userSpaceOnUse">
<stop stop-color="#B34B1E"/>
<stop offset="1" stop-color="white" stop-opacity="0"/>
</linearGradient>
<linearGradient id="paint1_linear_7302_5788" x1="8.17667" y1="2.25809" x2="3.11611" y2="0.125941" gradientUnits="userSpaceOnUse">
<stop offset="0.0274992" stop-color="#B34B1E"/>
<stop offset="1" stop-color="white" stop-opacity="0"/>
</linearGradient>
<clipPath id="clip0_7302_5788">
<rect width="23.9998" height="24" fill="white" transform="translate(70.9434)"/>
</clipPath>
</defs>
</svg>
